<?xml version="1.0" encoding="UTF-8" standalone="no"?>
<!DOCTYPE svg PUBLIC "-//W3C//DTD SVG 1.1//EN" "http://www.w3.org/Graphics/SVG/1.1/DTD/svg11.dtd">
<svg width="595.00" height="842.00" viewBox="0.00 0.00 595.00 842.00" xmlns="http://www.w3.org/2000/svg" xmlns:xlink="http://www.w3.org/1999/xlink">
<g stroke-linecap="round" id="Layer_2">
<path d="M30.58,19.58 L221.47,19.58 L221.47,97.50 L30.58,97.50 L30.58,19.58 Z" fill="none" stroke="rgb(0, 0, 0)" stroke-width="11.43" stroke-opacity="1.00" stroke-linejoin="miter"/>
<path d="M238.35,20.88 L390.28,20.88 L390.28,98.79 L238.35,98.79 L238.35,20.88 Z" fill="none" stroke="rgb(0, 0, 0)" stroke-width="11.43" stroke-opacity="1.00" stroke-linejoin="miter"/>
<path d="M404.57,22.18 L551.30,22.18 L551.30,100.09 L404.57,100.09 L404.57,22.18 Z" fill="none" stroke="rgb(0, 0, 0)" stroke-width="11.43" stroke-opacity="1.00" stroke-linejoin="miter"/>
<path d="M477.29,119.57 L556.50,119.57 L556.50,310.46 L477.29,310.46 L477.29,119.57 Z" fill="none" stroke="rgb(0, 0, 0)" stroke-width="11.43" stroke-opacity="1.00" stroke-linejoin="miter"/>
<path d="M438.33,331.24 L557.80,331.24 L557.80,471.48 L438.33,471.48 L438.33,331.24 Z" fill="none" stroke="rgb(0, 0, 0)" stroke-width="11.43" stroke-opacity="1.00" stroke-linejoin="miter"/>
<path d="M417.55,492.26 L557.80,492.26 L557.80,605.23 L417.55,605.23 L417.55,492.26 Z" fill="none" stroke="rgb(0, 0, 0)" stroke-width="11.43" stroke-opacity="1.00" stroke-linejoin="miter"/>
<path d="M418.85,628.61 L559.09,628.61 L559.09,736.39 L418.85,736.39 L418.85,628.61 Z" fill="none" stroke="rgb(0, 0, 0)" stroke-width="11.43" stroke-opacity="1.00" stroke-linejoin="miter"/>
<path d="M30.58,111.78 L100.70,111.78 L100.70,293.58 L30.58,293.58 L30.58,111.78 Z" fill="none" stroke="rgb(0, 0, 0)" stroke-width="11.43" stroke-opacity="1.00" stroke-linejoin="miter"/>
<path d="M31.88,307.86 L105.90,307.86 L105.90,480.57 L31.88,480.57 L31.88,307.86 Z" fill="none" stroke="rgb(0, 0, 0)" stroke-width="11.43" stroke-opacity="1.00" stroke-linejoin="miter"/>
<path d="M31.88,498.75 L109.79,498.75 L109.79,667.56 L31.88,667.56 L31.88,498.75 Z" fill="none" stroke="rgb(0, 0, 0)" stroke-width="11.43" stroke-opacity="1.00" stroke-linejoin="miter"/>
<path d="M10.91,0.00 L578.18,0.00 L578.18,752.73 L10.91,752.73 L10.91,0.00 Z" fill="none" stroke="rgb(0, 0, 0)" stroke-width="12.00" stroke-opacity="1.00" stroke-linejoin="miter"/>
<path d="M333.00,754.00 L333.00,764.25 L333.00,774.50 L333.00,784.75 L333.00,795.00 L333.00,805.25 L333.00,830.75 L333.00,832.00 L333.00,833.25 L333.00,834.50 L333.00,835.75 L333.00,837.00" fill="none" stroke="rgb(0, 0, 0)" stroke-width="12.00" stroke-opacity="1.00" stroke-linejoin="round"/>
<path d="M242.73,754.09 Q242.73,833.18 331.36,835.91" fill="none" stroke="rgb(0, 0, 0)" stroke-width="12.00" stroke-opacity="1.00" stroke-linejoin="round"/>
</g>
</svg>
